<svg version="1" xmlns="http://www.w3.org/2000/svg" width="1440" height="1440" viewBox="0 0 1080.000000 1080.000000"><path d="M614.4 158c-13.1 3.4-20.4 7.5-29.8 16.8-7.2 7.1-11.8 14.4-15.1 23.9l-2.5 6.8V539c0 225.6.4 335 1.1 338 3 13.2 14.3 28.5 27.3 37 12.6 8.3 30.4 11.6 45.5 8.6 24-4.9 41.1-20.4 49.2-44.6 1.8-5.3 1.9-16.9 1.9-337.6 0-301.3-.1-332.5-1.6-337.5-.9-3-3.5-9-5.7-13.4-12.9-25-43.2-38.6-70.3-31.5zM801.2 292.1c-22.3 3.9-42.7 21.7-49.2 42.7-2 6.3-2 10.3-2 203.8 0 197.4 0 197.5 2.1 203.7 3.2 9.7 7.6 16.6 15.8 24.8 12.1 12.2 26.4 18.1 43.9 18.2 10.9 0 17.6-1.5 27.7-6.3 16.8-8.1 29-22.4 34.1-40 1.8-6.2 1.9-14.3 2.1-198.1.3-188.9.3-191.6-1.7-199.5-4.2-16.6-14.2-31.1-27.8-40-11.8-7.9-31-11.9-45-9.3zM430.4 295c-13.4 3.5-26.1 11.8-33.9 22.3-5.7 7.4-7.5 11.1-10.6 20.2l-2.4 7-.3 192.5c-.2 167.3 0 193.5 1.3 200.5 3.5 18.9 16.7 36.2 33.6 44.3 11.2 5.3 17.4 6.7 29.4 6.5 29.4-.3 53-19.4 60.6-49 1.8-7.4 1.9-12.7 1.9-198.7 0-213.1.5-196.6-7.2-212.5-7.8-16.2-24.3-29.4-41.8-33.5-8.8-2.1-21.8-1.9-30.6.4zM255 413.9c-22.1 4.2-39.6 18.8-48.6 40.6l-2.9 7v154l3.1 8.6c8.5 23.9 27.5 39.5 52 42.8 18.3 2.5 36.9-3.5 51.5-16.6 6-5.4 13.3-17 16.3-26.1l2.6-7.7v-74.1c0-71-.1-74.4-2-82-2.8-10.9-8.9-21.1-17.5-29.3-8.4-8-13.7-11.2-24.1-14.7-8.5-2.8-22.3-4-30.4-2.5z"/></svg>